<?xml version="1.0" encoding="iso-8859-1"?>
<!-- Generator: Adobe Illustrator 18.0.0, SVG Export Plug-In . SVG Version: 6.00 Build 0)  -->
<!DOCTYPE svg PUBLIC "-//W3C//DTD SVG 1.1//EN" "http://www.w3.org/Graphics/SVG/1.1/DTD/svg11.dtd">
<svg version="1.1" id="Capa_1" xmlns="http://www.w3.org/2000/svg" xmlns:xlink="http://www.w3.org/1999/xlink" x="0px" y="0px"
	 viewBox="0 0 58 58" style="enable-background:new 0 0 58 58;" xml:space="preserve">
<g>
	<path style="fill:#7383BF;" d="M53,7.5H5c-2.722,0-5,2.277-5,5v31.495c0,2.723,2.278,5,5,5h13.578l-3.323-3.289
		c-0.393-0.389-0.396-1.022-0.007-1.415c0.389-0.392,1.021-0.396,1.415-0.007l4.042,4c0.007,0.007,0.01,0.018,0.017,0.025
		c0.007,0.007,0.016,0.01,0.023,0.017L29,57.5l8.257-9.174c0.031-0.034,0.072-0.05,0.106-0.079l4.004-3.963
		c0.394-0.388,1.026-0.384,1.415,0.007c0.388,0.393,0.385,1.026-0.007,1.415l-3.324,3.289H53c2.722,0,5-2.277,5-5V12.5
		C58,9.777,55.722,7.5,53,7.5z"/>
	<path style="fill:#536396;" d="M51,7.5V4.293C51,2.228,49.272,0.5,47.207,0.5H10.793C8.728,0.5,7,2.228,7,4.293V7.5H51z"/>
	<g>
		<path style="fill:#FFFFFF;" d="M15,28.5h28c0.552,0,1-0.447,1-1s-0.448-1-1-1H15c-0.552,0-1,0.447-1,1S14.448,28.5,15,28.5z"/>
		<path style="fill:#FFFFFF;" d="M43,34.5H15c-0.552,0-1,0.447-1,1s0.448,1,1,1h28c0.552,0,1-0.447,1-1S43.552,34.5,43,34.5z"/>
		<path style="fill:#FFFFFF;" d="M15,20.5h15c0.552,0,1-0.447,1-1s-0.448-1-1-1H15c-0.552,0-1,0.447-1,1S14.448,20.5,15,20.5z"/>
	</g>
</g>
<g>
</g>
<g>
</g>
<g>
</g>
<g>
</g>
<g>
</g>
<g>
</g>
<g>
</g>
<g>
</g>
<g>
</g>
<g>
</g>
<g>
</g>
<g>
</g>
<g>
</g>
<g>
</g>
<g>
</g>
</svg>
