<?xml version="1.0" encoding="iso-8859-1"?>
<!-- Generator: Adobe Illustrator 19.0.0, SVG Export Plug-In . SVG Version: 6.00 Build 0) -->

<svg version="1.1" id="Layer_1" xmlns="http://www.w3.org/2000/svg" xmlns:xlink="http://www.w3.org/1999/xlink" x="0px" y="0px" viewBox="0 0 511.982 511.982" style="enable-background:new 0 0 511.982 511.982;" xml:space="preserve">
	
	<!--cola-->
	<polygon style="fill:#17ceb4;" points="191.524,410.641 0,373.315 106.668,479.983 191.993,479.983 "/>

	<!--ala izquierda-->
	<polygon style="fill:#11ad94;" points="234.586,52.732 174.181,239.319 333.519,425.985 374.846,309.317 "/>

	<!--cuello-->
	<path style="fill:#17ceb4;" d="M426.657,117.324L277.319,425.985l115.823,11.328c0,0,47.576-235.773,57.155-270.913L426.657,117.324z"/>
	
	<g style="opacity:0.1;">
		<polygon points="114.23,395.58 142.964,479.983 191.993,479.983 191.524,410.641 	"/>
	</g>
	
	<path style="opacity:0.1;enable-background:new;" d="M394.659,183.462l40.841,48.577c3.969-18.452,9.313-42.952,11.875-53.873 l-31.265-39.062L394.659,183.462z"/>
	
	<g style="opacity:0.1;">
		<polygon points="400.002,403.47 318.895,340.035 277.319,425.985 393.142,437.313 	"/>
	</g>

	<!--ala derecha-->
	<g>
	
		<path style="fill:#19dec1;" d="M85.325,31.999l0.203,320.207l85.138,127.777h175.916l46.561-42.67 C393.142,437.313,88.653,38.654,85.325,31.999z"/>
		
		<!--cabeza-->
		<polygon style="fill:#19dec1;" points="426.657,117.324 394.659,183.462 511.982,223.992 	"/>
	
	</g>

</svg>
